<svg xmlns="http://www.w3.org/2000/svg" width="151.8mm" height="19.59mm" viewBox="0 0 430.31 55.52"><defs><style>.a{fill:#010101;}.b{fill:#256d8e;}</style></defs><path class="a" d="M31.11,44.9V33.73H55.65V56.62a49.3,49.3,0,0,1-12.46,6.83,40.61,40.61,0,0,1-12.86,1.82q-9.15,0-14.92-3.26A22,22,0,0,1,6.47,52.3,33,33,0,0,1,3.3,37.51,31.92,31.92,0,0,1,6.77,22.22a22.8,22.8,0,0,1,10.17-9.87Q22.16,9.74,31,9.75q8.52,0,12.75,1.61a16.48,16.48,0,0,1,7,5A22.48,22.48,0,0,1,55,25L39.63,27.8a8.68,8.68,0,0,0-3.21-4.65,9.74,9.74,0,0,0-5.77-1.61,10.21,10.21,0,0,0-8.33,3.79q-3.11,3.8-3.1,12,0,8.72,3.14,12.45a10.81,10.81,0,0,0,8.75,3.74,15.9,15.9,0,0,0,5.08-.81A26.79,26.79,0,0,0,41.73,50V44.9Z" transform="translate(-3.3 -9.75)"/><path class="a" d="M93.1,55.49h-18l-2.51,8.86H56.34L75.66,10.66H93l19.32,53.69H95.68ZM89.81,43.88l-5.68-19.3-5.61,19.3Z" transform="translate(-3.3 -9.75)"/><path class="a" d="M105.21,10.66H153.5V23.92H137.3V64.35H121.42V23.92H105.21Z" transform="translate(-3.3 -9.75)"/><path class="a" d="M157.07,10.66h42.57V22.12H173v8.54h24.72v11H173V52.19h27.42V64.35H157.07Z" transform="translate(-3.3 -9.75)"/><path class="b" d="M227.44,10.66h15.89V51.13h24.79V64.35H227.44Z" transform="translate(-3.3 -9.75)"/><path class="b" d="M268.53,37.54q0-13.14,7-20.47t19.53-7.32q12.84,0,19.78,7.19T321.8,37.1q0,9.42-3,15.44A22.11,22.11,0,0,1,310,61.91q-5.73,3.36-14.29,3.36t-14.4-2.9a22.22,22.22,0,0,1-9.24-9.15Q268.53,47,268.53,37.54Zm15.89.08q0,8.13,2.89,11.68a10.64,10.64,0,0,0,15.8.07q2.81-3.48,2.8-12.49,0-7.58-2.92-11.07a9.81,9.81,0,0,0-7.95-3.5,9.46,9.46,0,0,0-7.71,3.55Q284.42,29.42,284.42,37.62Z" transform="translate(-3.3 -9.75)"/><path class="b" d="M361,42.38l13.93,4.39A27.5,27.5,0,0,1,370.5,57,19.37,19.37,0,0,1,363,63.18a27,27,0,0,1-11.38,2.09q-8.38,0-13.69-2.55t-9.17-8.95q-3.87-6.41-3.86-16.39,0-13.32,6.78-20.48t19.2-7.15q9.72,0,15.28,4.1t8.26,12.6l-14,3.26a12.56,12.56,0,0,0-1.55-3.59,9.12,9.12,0,0,0-3.26-2.93,8.94,8.94,0,0,0-4.31-1A9.23,9.23,0,0,0,343,26.7q-2.17,3.36-2.17,10.57,0,8.92,2.59,12.23a8.74,8.74,0,0,0,7.3,3.31q4.56,0,6.89-2.67A16.89,16.89,0,0,0,361,42.38Z" transform="translate(-3.3 -9.75)"/><path class="b" d="M379.11,10.66H395V31l16.64-20.29h21.13L414,30.93l19.61,33.42H414L403.2,42.27l-8.2,9v13.1H379.11Z" transform="translate(-3.3 -9.75)"/></svg>