<svg xmlns="http://www.w3.org/2000/svg" width="472.3" height="284.86" viewBox="0 0 472.3 284.86"><defs><style>.a{fill:#1f5577;}.b{fill:#256d8e;}.c{fill:#fff;}</style></defs><rect class="a" x="308.18" y="75.27" width="119.05" height="336.9" rx="59.52" transform="translate(60.13 516.15) rotate(-90)"/><circle class="b" cx="142.43" cy="142.43" r="142.43"/><path class="c" d="M166.49,319.75a98.28,98.28,0,0,1-31.06-23.53c-14.51-16.64-21.29-37.43-21.29-58.52,0-21.69,6.54-40.33,20.44-57.84,13.32-16.79,32.13-27.84,54-32.61l2.45-.53V119.56l-.94.16-1.36.21A119,119,0,0,0,87.19,237.7,117.87,117.87,0,0,0,116.54,316a119.75,119.75,0,0,0,72.22,39.48l2.3.35V262.57H166.49Z" transform="translate(-63.85 -95.27)"/><path class="c" d="M295.23,262c-8.75,31.46-34.58,56.31-66.2,64.48V119H204.46V353.85h0l0,2.95h1.82c93.3-1,114.61-83.55,116.59-94.6Z" transform="translate(-63.85 -95.27)"/><path class="c" d="M376.86,223.56h10.85l-.88,7.74a44.75,44.75,0,0,1-1.23,6.41c1.25-.65,2.07-1.1,2.46-1.34,1.37-.78,2.42-1.35,3.14-1.69L398,231.3l3.39,10.82-7.56,1.64a42.33,42.33,0,0,1-6.14.56,37.63,37.63,0,0,1,4.37,4.1l5.11,5.8-8.84,6.92-3.63-6.92c-.52-1-1.38-2.93-2.55-5.8a59.79,59.79,0,0,1-2.56,5.8l-3.68,6.92-9.08-6.92,5.5-5.8a40.26,40.26,0,0,1,4.51-4.1,59.63,59.63,0,0,1-5.94-.92l-7.61-1.28,3.54-10.82,6.82,3.23c.72.34,2.51,1.4,5.35,3.18q-.93-4.31-1.17-6.41Z" transform="translate(-63.85 -95.27)"/><path class="c" d="M427.76,223.56h10.85l-.89,7.74a43.26,43.26,0,0,1-1.22,6.41c1.24-.65,2.06-1.1,2.45-1.34,1.38-.78,2.42-1.35,3.14-1.69l6.83-3.38,3.38,10.82-7.56,1.64a42.31,42.31,0,0,1-6.13.56,38.47,38.47,0,0,1,4.37,4.1l5.1,5.8-8.83,6.92-3.64-6.92c-.52-1-1.37-2.93-2.55-5.8q-1.92,4.72-2.55,5.8l-3.69,6.92-9.08-6.92,5.5-5.8a40.31,40.31,0,0,1,4.52-4.1,58.76,58.76,0,0,1-5.94-.92l-7.61-1.28,3.53-10.82,6.83,3.23q1.08.51,5.35,3.18-.94-4.31-1.18-6.41Z" transform="translate(-63.85 -95.27)"/><path class="c" d="M478.65,223.56H489.5l-.88,7.74a44.75,44.75,0,0,1-1.23,6.41c1.24-.65,2.06-1.1,2.45-1.34,1.38-.78,2.43-1.35,3.15-1.69l6.82-3.38,3.39,10.82-7.56,1.64a42.48,42.48,0,0,1-6.14.56,38.47,38.47,0,0,1,4.37,4.1l5.11,5.8-8.84,6.92-3.64-6.92c-.52-1-1.37-2.93-2.55-5.8a60.81,60.81,0,0,1-2.55,5.8l-3.68,6.92-9.09-6.92,5.5-5.8a41.2,41.2,0,0,1,4.52-4.1,58.76,58.76,0,0,1-5.94-.92l-7.61-1.28,3.53-10.82,6.83,3.23q1.08.51,5.35,3.18c-.62-2.87-1-5-1.18-6.41Z" transform="translate(-63.85 -95.27)"/></svg>